<svg width="354" height="346" viewBox="0 0 354 346" fill="none" xmlns="http://www.w3.org/2000/svg">
<path d="M90.2117 93.5422C127.95 139.797 88.6881 217.456 36.2249 197.317C13.5978 188.632 0.53321 164.136 0.146208 139.082C-0.745066 81.2184 57.8149 53.8216 90.2117 93.5422Z" fill="#FAC663" fill-opacity="0.15"/>
<path d="M136.045 122.618C78.0136 100.342 98.3965 -4.69204 159.737 0.299786C187.683 2.5764 209.461 31.2137 206.234 67.042C202.628 107.204 168.669 135.142 136.045 122.618Z" fill="#FAC663" fill-opacity="0.15"/>
<path d="M83.7584 303.439C92.6712 304.309 107.524 308.367 122.575 313.907C138.49 319.75 154.624 327.243 164.207 334.32C190.071 353.486 236.946 349.131 243.831 305.357C250.192 264.888 220.645 255.991 227.457 217.939C234.362 179.491 214.397 151.992 188.02 143.417C163.606 135.484 133.702 143.77 114.578 174.619C94.2094 207.494 66.3655 194.338 44.0298 228.66C19.8119 265.818 51.8562 300.347 83.7584 303.439Z" fill="#FAC663" fill-opacity="0.15"/>
<path d="M238.177 161.827C221.762 155.526 211.318 140.598 209.075 123.027C202.412 70.7793 263.673 25.5064 302.409 55.1075C351.411 92.5235 296.176 184.091 238.177 161.827Z" fill="#FAC663" fill-opacity="0.15"/>
<path d="M238.959 238.189C237.795 185.529 303.3 146.895 338.768 180.577C381.492 221.147 324.206 303.402 268.337 281.957C250.408 275.074 239.401 258.208 238.959 238.189Z" fill="#FAC663" fill-opacity="0.15"/>
</svg>
